<svg version="1.1" xmlns="http://www.w3.org/2000/svg" xmlns:xlink="http://www.w3.org/1999/xlink" width="530.52853" height="402.90091" viewBox="0,0,530.52853,402.90091"><g transform="translate(31.27027,13.94295)"><g data-paper-data="{&quot;isPaintingLayer&quot;:true}" fill-rule="nonzero" stroke-width="2" stroke-linejoin="miter" stroke-miterlimit="10" stroke-dasharray="" stroke-dashoffset="0" style="mix-blend-mode: normal"><path d="M-30.27027,387.95796v-400.9009h528.52853v400.90091z" fill="#3eda00" stroke="#000000" stroke-linecap="butt"/><path d="M205.46547,251.32132l16.51651,16.51652l15.01502,-12.01202" fill="none" stroke="#2d9f00" stroke-linecap="round"/><path d="M142.8979,280.34535l16.51651,16.51652l15.01502,-12.01202" fill="none" stroke="#2d9f00" stroke-linecap="round"/><path d="M302.55255,178.73874l16.51652,16.51652l15.01501,-12.01202" fill="none" stroke="#2d9f00" stroke-linecap="round"/><path d="M167.4024,153.21321l-16.51651,16.51652l-15.01502,-12.01202" data-paper-data="{&quot;index&quot;:null}" fill="none" stroke="#2d9f00" stroke-linecap="round"/><path d="M229.96997,182.23724l-16.51651,16.51652l-15.01501,-12.01202" data-paper-data="{&quot;index&quot;:null}" fill="none" stroke="#2d9f00" stroke-linecap="round"/><path d="M70.31531,80.63063l-16.51652,16.51652l-15.01502,-12.01202" data-paper-data="{&quot;index&quot;:null}" fill="none" stroke="#2d9f00" stroke-linecap="round"/><path d="M71.80179,221.27627l-16.51651,16.51652l-15.01501,-12.01201" data-paper-data="{&quot;index&quot;:null}" fill="none" stroke="#2d9f00" stroke-linecap="round"/><path d="M452.68768,334.38438l-16.51651,16.51652l-15.01501,-12.01201" data-paper-data="{&quot;index&quot;:null}" fill="none" stroke="#2d9f00" stroke-linecap="round"/><path d="M293.03303,232.77777l-16.51651,16.51652l-15.01501,-12.01201" data-paper-data="{&quot;index&quot;:null}" fill="none" stroke="#2d9f00" stroke-linecap="round"/><path d="M395.12012,310.36036l-16.51652,16.51652l-15.01501,-12.01201" data-paper-data="{&quot;index&quot;:null}" fill="none" stroke="#2d9f00" stroke-linecap="round"/><path d="M450.18018,63.1081l-16.51651,16.51652l-15.01502,-12.01201" data-paper-data="{&quot;index&quot;:null}" fill="none" stroke="#2d9f00" stroke-linecap="round"/><path d="M326.56156,68.1081l-16.51651,16.51652l-15.01502,-12.01201" data-paper-data="{&quot;index&quot;:null}" fill="none" stroke="#2d9f00" stroke-linecap="round"/><path d="M407.62762,217.76276l-16.51652,16.51652l-15.01501,-12.01201" data-paper-data="{&quot;index&quot;:null}" fill="none" stroke="#2d9f00" stroke-linecap="round"/><path d="M470.19519,246.78678l-16.51651,16.51652l-15.01502,-12.01201" data-paper-data="{&quot;index&quot;:null}" fill="none" stroke="#2d9f00" stroke-linecap="round"/><path d="M310.54054,145.18017l-16.51651,16.51652l-15.01502,-12.01201" data-paper-data="{&quot;index&quot;:null}" fill="none" stroke="#2d9f00" stroke-linecap="round"/></g></g></svg>