<svg version="1.1" xmlns="http://www.w3.org/2000/svg" xmlns:xlink="http://www.w3.org/1999/xlink" width="57.57723" height="68.6512" viewBox="0,0,57.57723,68.6512"><g transform="translate(-211.21138,-145.67439)"><g data-paper-data="{&quot;isPaintingLayer&quot;:true}" fill="#d40087" fill-rule="nonzero" stroke="none" stroke-width="NaN" stroke-linecap="butt" stroke-linejoin="miter" stroke-miterlimit="10" stroke-dasharray="" stroke-dashoffset="0" style="mix-blend-mode: normal"><path d="M263.81488,195.91081c-8.93051,16.79356 -26.83241,23.28392 -39.985,14.49662c-13.15259,-8.7873 -16.57527,-29.52469 -7.64476,-46.31825c8.93051,-16.79356 26.83241,-23.28392 39.985,-14.49662c13.15259,8.7873 16.57527,29.52469 7.64476,46.31825zM254.50736,164.83266c-0.10049,-1.80874 -2.53469,-2.59914 -3.93502,-3.74836c-3.94193,-3.23505 -11.74453,-1.61422 -16.14427,-0.51429c-3.03603,0.75901 -5.29353,4.44798 -7.02599,6.85163c-4.09005,5.67465 -7.3877,12.50644 -5.70188,20.09264c3.49243,15.71592 19.04178,20.07055 30.72811,9.19017c5.64059,-5.25159 6.57638,-19.01143 5.21586,-25.72388c-0.45348,-2.23736 -2.30278,-3.98723 -2.79398,-5.95201z" stroke-width="NaN"/></g></g></svg>